<svg xmlns="http://www.w3.org/2000/svg" width="10.771" height="11.123" viewBox="0 0 10.771 11.123">
  <path id="제외_6" data-name="제외 6" d="M-6409.478,11.123h-2.216l-.652-1.823a4.035,4.035,0,0,1-.626-.361l-1.89.387-1.108-1.92,1.254-1.476c-.011-.13-.017-.251-.017-.368s.005-.224.016-.353L-6416,3.765l1.108-1.919,1.907.347a4.152,4.152,0,0,1,.623-.362L-6411.75,0h2.216l.653,1.825a4.06,4.06,0,0,1,.623.359l1.892-.387,1.108,1.919-1.254,1.478c.011.13.017.251.017.37s0,.222-.016.351l1.283,1.445-1.108,1.919-1.907-.346a4.224,4.224,0,0,1-.624.362l-.61,1.829Zm-1.255-7.739a2.209,2.209,0,0,0-2.207,2.206,2.209,2.209,0,0,0,2.207,2.206,2.209,2.209,0,0,0,2.206-2.206A2.209,2.209,0,0,0-6410.733,3.384Z" transform="translate(6416)" fill="#abadb0"/>
</svg>
