<svg xmlns="http://www.w3.org/2000/svg" width="16" height="16" viewBox="0 0 16 16">
  <g id="그룹_481" data-name="그룹 481" transform="translate(-1834 -119)">
    <g id="패스_44" data-name="패스 44" transform="translate(1834 119)" fill="#fff">
      <path d="M 9.30369758605957 15.50000190734863 L 6.695420265197754 15.50000190734863 L 6.25493860244751 13.29793167114258 L 6.108518600463867 12.56594181060791 L 5.487348556518555 12.97994232177734 L 3.618700265884399 14.22536373138428 L 1.773805022239685 12.38046836853027 L 3.019518613815308 10.51223182678223 L 3.433808565139771 9.890912055969238 L 2.701518535614014 9.744551658630371 L 0.4999985694885254 9.304530143737793 L 0.4999985694885254 6.695414066314697 L 2.702438592910767 6.254861831665039 L 3.434528589248657 6.108421802520752 L 3.020398616790771 5.487221717834473 L 1.774733662605286 3.618724584579468 L 3.619516134262085 1.774626851081848 L 5.487368583679199 3.019752025604248 L 6.108548641204834 3.433831930160522 L 6.254988670349121 2.701781988143921 L 6.695418834686279 0.5000019073486328 L 9.30369758605957 0.5000019073486328 L 9.744288444519043 2.702601909637451 L 9.890708923339844 3.434592008590698 L 10.51187896728516 3.020591974258423 L 12.38131713867188 1.774640560150146 L 14.22537136077881 3.618694543838501 L 12.97995853424072 5.48734188079834 L 12.56596851348877 6.108511924743652 L 13.29794883728027 6.254931926727295 L 15.50001811981201 6.695413589477539 L 15.50001811981201 9.304530143737793 L 13.29849815368652 9.744551658630371 L 12.5662088394165 9.890912055969238 L 12.98049831390381 10.51223182678223 L 14.22621250152588 12.38046836853027 L 12.38134288787842 14.22533798217773 L 10.51195812225342 12.97919178009033 L 9.890778541564941 12.56511211395264 L 9.744338989257812 13.29716205596924 L 9.30369758605957 15.50000190734863 Z" stroke="none"/>
      <path d="M 8.893815040588379 15.00000190734863 L 9.546918869018555 11.73498153686523 L 12.31761264801025 13.58194828033447 L 13.58278369903564 12.31677627563477 L 11.73591899871826 9.546972274780273 L 15.00001811981201 8.89457893371582 L 15.00001811981201 7.105297088623047 L 11.73590850830078 6.45238208770752 L 13.58200931549072 3.682453155517578 L 12.31756401062012 2.418007135391235 L 9.546848297119141 4.264641761779785 L 8.893814086914062 1.000001907348633 L 7.105301380157471 1.000001907348633 L 6.452398777008057 4.263961791992188 L 3.683175563812256 2.417969703674316 L 2.418172597885132 3.68250298500061 L 4.264688491821289 6.452271938323975 L 0.9999985694885254 7.105306625366211 L 0.9999985694885254 8.89457893371582 L 4.264098644256592 9.546972274780273 L 2.417233467102051 12.31677627563477 L 3.68245792388916 13.58200168609619 L 6.452388763427734 11.7358922958374 L 7.105303764343262 15.00000190734863 L 8.893815040588379 15.00000190734863 M 9.713588714599609 16.00000190734863 L 6.285528659820557 16.00000190734863 L 5.7646484375 13.3960018157959 L 3.554958581924438 14.8687219619751 L 1.130388617515564 12.44415187835693 L 2.603518486022949 10.2348518371582 L -1.416931127096177e-06 9.714482307434082 L -1.416931127096177e-06 6.285521984100342 L 2.604368686676025 5.764572143554688 L 1.131288528442383 3.554951906204224 L 3.555858612060547 1.131281852722168 L 5.764698505401611 2.603711843490601 L 6.285528659820557 1.9073486328125e-06 L 9.713588714599609 1.9073486328125e-06 L 10.23457813262939 2.60453200340271 L 12.44505882263184 1.131281852722168 L 14.86872863769531 3.554951906204224 L 13.39601898193359 5.764641761779785 L 16.00001907348633 6.285521984100342 L 16.00001907348633 9.714482307434082 L 13.39649868011475 10.2348518371582 L 14.86962890625 12.44415187835693 L 12.44505882263184 14.8687219619751 L 10.23462867736816 13.39523220062256 L 9.713588714599609 16.00000190734863 Z" stroke="none" fill="#444"/>
    </g>
    <g id="타원_4" data-name="타원 4" transform="translate(1839 124)" fill="none" stroke="#444" stroke-width="1">
      <circle cx="3" cy="3" r="3" stroke="none"/>
      <circle cx="3" cy="3" r="2.5" fill="none"/>
    </g>
  </g>
</svg>
