<svg xmlns="http://www.w3.org/2000/svg" width="22.835" height="20.43" viewBox="0 0 22.835 20.43">
  <g id="그룹_1166" data-name="그룹 1166" transform="translate(-10879.332 645.332)">
    <path id="합치기_17" data-name="합치기 17" d="M13.652,14.5v0H4.846v0H0l3.261-3.82V5.5A5.5,5.5,0,0,1,8.761,0h1.258a5.5,5.5,0,0,1,5.5,5.5V11.01L18.5,14.5Z" transform="translate(10881.5 -642.368)" fill="none" stroke="#0b0b0b" stroke-width="2"/>
    <g id="빼기_7" data-name="빼기 7" transform="translate(10888.604 -627.132)" fill="none">
      <path d="M2.229,2.23A2.232,2.232,0,0,1,0,0H4.458A2.232,2.232,0,0,1,2.229,2.23Z" stroke="none"/>
      <path d="M 2.228615760803223 2.229618549346924 C 0.9997557401657104 2.229618549346924 -4.275436367606744e-06 1.229418516159058 -4.275436367606744e-06 -1.440582309442107e-06 L 4.458235740661621 -1.440582309442107e-06 C 4.458235740661621 1.229918599128723 3.457525730133057 2.229618549346924 2.228615760803223 2.229618549346924 Z" stroke="none" fill="#0b0b0b"/>
    </g>
    <g id="빼기_8" data-name="빼기 8" transform="translate(10888.744 -645.332)" fill="#313131">
      <path d="M 1.515644311904907 1.228455901145935 C 1.716773271560669 1.084667086601257 1.962863326072693 1.000004053115845 2.228400230407715 1.000004053115845 C 2.494132995605469 1.000004053115845 2.740401744842529 1.084665775299072 2.941678047180176 1.22845458984375 C 2.932809114456177 1.228421211242676 2.923969984054565 1.22840404510498 2.91510009765625 1.22840404510498 L 1.542600154876709 1.22840404510498 C 1.533615589141846 1.22840404510498 1.524627089500427 1.228421688079834 1.515644311904907 1.228455901145935 Z" stroke="none"/>
      <path d="M 0.007510126102715731 2.426644086837769 L 0.007420126348733902 2.425434112548828 C 0.00250012637116015 2.354854106903076 1.262664852674789e-07 2.288563966751099 1.262664852674789e-07 2.228414058685303 C 1.262664852674789e-07 0.9996640682220459 0.9996601343154907 4.069976967002731e-06 2.228400230407715 4.069976967002731e-06 C 3.457640171051025 4.069976967002731e-06 4.457700252532959 0.9996640682220459 4.457700252532959 2.228414058685303 C 4.457700252532959 2.293843984603882 4.45481014251709 2.360033988952637 4.449120044708252 2.425134181976318 C 3.950150012969971 2.294883966445923 3.434450149536133 2.22840404510498 2.91510009765625 2.22840404510498 L 1.542600154876709 2.22840404510498 C 1.022830128669739 2.22840404510498 0.5067501068115234 2.294994115829468 0.008670126087963581 2.426324129104614 L 0.007510126102715731 2.426644086837769 Z" stroke="none" fill="#0b0b0b"/>
    </g>
  </g>
</svg>
