<svg xmlns="http://www.w3.org/2000/svg" width="40" height="40" viewBox="0 0 40 40">
  <g id="그룹_1459" data-name="그룹 1459" transform="translate(-1533 -867)">
    <g id="빼기_10" data-name="빼기 10" transform="translate(14769.001 870)" fill="#fff">
      <path d="M -13214.3330078125 33.47577667236328 L -13217.3349609375 33.47577667236328 C -13218.0693359375 33.47577667236328 -13218.298828125 32.56627655029297 -13218.3515625 32.28751754760742 L -13218.884765625 29.53023719787598 L -13218.9921875 28.9708366394043 L -13219.529296875 28.77864646911621 C -13220.08203125 28.58041572570801 -13220.640625 28.3304557800293 -13221.1884765625 28.03569602966309 L -13221.697265625 27.76192665100098 L -13222.1884765625 28.06612586975098 L -13224.6337890625 29.58012390136719 C -13225.03125 29.81783676147461 -13225.41015625 29.94869613647461 -13225.703125 29.94870567321777 C -13225.9189453125 29.94870567321777 -13226.0830078125 29.88053703308105 -13226.2353515625 29.7276668548584 L -13228.3544921875 27.60823631286621 C -13228.841796875 27.12062644958496 -13228.48828125 26.42133712768555 -13228.234375 26.04790687561035 L -13226.4765625 23.45276641845703 L -13226.16015625 22.98579597473145 L -13226.396484375 22.47352600097656 C -13226.609375 22.01155662536621 -13226.7890625 21.54756736755371 -13226.931640625 21.09445571899414 L -13227.1025390625 20.55072593688965 L -13227.6572265625 20.42059707641602 L -13230.7646484375 19.69174003601074 C -13231.134765625 19.59891700744629 -13231.4560546875 19.45691299438477 -13231.6708984375 19.29155731201172 C -13231.9619140625 19.06731605529785 -13232.0009765625 18.8486270904541 -13232.0009765625 18.66427612304688 L -13232.0009765625 15.66536617279053 C -13232.0009765625 14.97673606872559 -13231.2578125 14.73271656036377 -13230.814453125 14.64854621887207 L -13227.517578125 14.01374626159668 L -13226.9599609375 13.90631675720215 L -13226.7666015625 13.37210655212402 C -13226.6220703125 12.97116661071777 -13226.4619140625 12.59270668029785 -13226.27734375 12.21510601043701 L -13226.0234375 11.69546604156494 L -13226.34765625 11.21640682220459 L -13228.2333984375 8.426726341247559 C -13228.4892578125 8.051436424255371 -13228.841796875 7.355266571044922 -13228.3544921875 6.867496490478516 L -13226.2353515625 4.744836330413818 C -13226.083984375 4.593436241149902 -13225.9189453125 4.525076389312744 -13225.7021484375 4.525076389312744 C -13225.408203125 4.525076389312744 -13225.0302734375 4.655233860015869 -13224.634765625 4.891689300537109 L -13221.779296875 6.667656421661377 L -13221.3056640625 6.962016582489014 L -13220.806640625 6.714246273040771 C -13220.41796875 6.521376609802246 -13220.0146484375 6.348256587982178 -13219.6083984375 6.199676513671875 L -13219.1005859375 6.014026641845703 L -13218.978515625 5.487706661224365 L -13218.2197265625 2.235726356506348 C -13218.1259765625 1.866638779640198 -13217.982421875 1.545606851577759 -13217.8173828125 1.331056475639343 C -13217.591796875 1.039326429367065 -13217.373046875 0.9999964237213135 -13217.189453125 0.9999964237213135 L -13214.1904296875 0.9999964237213135 C -13213.5009765625 0.9999964237213135 -13213.2568359375 1.743226408958435 -13213.1728515625 2.186256408691406 L -13212.578125 5.254756450653076 L -13212.46484375 5.839756488800049 L -13211.896484375 6.018526554107666 C -13211.41015625 6.171666622161865 -13210.9248046875 6.359466552734375 -13210.455078125 6.576706409454346 L -13209.96484375 6.803056240081787 L -13209.5068359375 6.518296241760254 L -13206.890625 4.891980171203613 C -13206.49609375 4.655332088470459 -13206.1162109375 4.525076389312744 -13205.822265625 4.525076389312744 C -13205.60546875 4.525076389312744 -13205.44140625 4.592816352844238 -13205.2900390625 4.744706630706787 L -13203.171875 6.866976261138916 C -13202.68359375 7.354906558990479 -13203.0361328125 8.051386833190918 -13203.2900390625 8.423196792602539 L -13203.291015625 8.425366401672363 L -13203.29296875 8.427546501159668 L -13204.86328125 10.75560665130615 L -13205.2021484375 11.25799655914307 L -13204.9130859375 11.79090595245361 C -13204.6162109375 12.34023666381836 -13204.361328125 12.91854667663574 -13204.1552734375 13.50977611541748 L -13203.974609375 14.02974605560303 L -13203.4384765625 14.15499687194824 L -13200.759765625 14.78075313568115 C -13200.390625 14.87357711791992 -13200.0693359375 15.01556968688965 -13199.8544921875 15.1808967590332 C -13199.5634765625 15.40513610839844 -13199.5244140625 15.6238260269165 -13199.5244140625 15.80817604064941 L -13199.5244140625 18.81039619445801 C -13199.5244140625 19.49903678894043 -13200.267578125 19.74305725097656 -13200.7109375 19.82722663879395 L -13203.2470703125 20.31593704223633 L -13203.837890625 20.42989730834961 L -13204.013671875 21.00588607788086 C -13204.2119140625 21.65470695495605 -13204.4716796875 22.29642677307129 -13204.7861328125 22.91323661804199 L -13205.052734375 23.43823623657227 L -13204.7236328125 23.92647552490234 L -13203.29296875 26.04529571533203 C -13203.0361328125 26.42210578918457 -13202.6826171875 27.12176704406738 -13203.1689453125 27.60641670227051 L -13205.2890625 29.7270565032959 C -13205.4423828125 29.88113594055176 -13205.6064453125 29.94903564453125 -13205.822265625 29.94903564453125 C -13206.115234375 29.94903564453125 -13206.4951171875 29.81912040710449 -13206.892578125 29.58304595947266 L -13209.0791015625 28.22319602966309 L -13209.556640625 27.92619705200195 L -13210.05859375 28.18016624450684 C -13210.6923828125 28.50080680847168 -13211.3544921875 28.76606559753418 -13212.025390625 28.96857643127441 L -13212.578125 29.1353759765625 L -13212.7099609375 29.69750595092773 L -13213.3056640625 32.23795318603516 C -13213.3984375 32.60814666748047 -13213.5400390625 32.9301872253418 -13213.7060546875 33.14519500732422 C -13213.9296875 33.43649673461914 -13214.1484375 33.47577667236328 -13214.3330078125 33.47577667236328 Z M -13215.48828125 11.47384643554688 C -13218.7958984375 11.47384643554688 -13221.4873046875 14.16610622406006 -13221.4873046875 17.4753360748291 C -13221.4873046875 20.78274726867676 -13218.7958984375 23.4735164642334 -13215.48828125 23.4735164642334 C -13212.1796875 23.4735164642334 -13209.4873046875 20.78274726867676 -13209.4873046875 17.4753360748291 C -13209.4873046875 14.16610622406006 -13212.1796875 11.47384643554688 -13215.48828125 11.47384643554688 Z" stroke="none"/>
      <path d="M -13214.458984375 32.47577667236328 C -13214.408203125 32.39035034179688 -13214.3369140625 32.23595809936523 -13214.27734375 32.00233459472656 L -13213.419921875 28.34482574462891 L -13212.314453125 28.01121711730957 C -13211.69921875 27.8255558013916 -13211.091796875 27.58219718933105 -13210.5107421875 27.28790664672852 L -13209.5068359375 26.77996635437012 L -13206.373046875 28.72811317443848 C -13206.1640625 28.85148811340332 -13206.0048828125 28.90945053100586 -13205.91015625 28.93376541137695 L -13203.9384765625 26.96126747131348 C -13203.9599609375 26.88895988464355 -13204.009765625 26.76846694946289 -13204.1171875 26.61066627502441 L -13204.12109375 26.60489654541016 L -13206.2109375 23.50960731506348 L -13205.6767578125 22.45958709716797 C -13205.3896484375 21.8945255279541 -13205.1513671875 21.30719566345215 -13204.970703125 20.71390724182129 L -13204.619140625 19.56193733215332 L -13200.8974609375 18.84479713439941 C -13200.7099609375 18.80922317504883 -13200.58984375 18.75971221923828 -13200.5244140625 18.72378730773926 L -13200.5244140625 15.93337059020996 C -13200.609375 15.88322830200195 -13200.7626953125 15.81182765960693 -13200.9951171875 15.75269222259521 L -13204.73828125 14.87826633453369 L -13205.099609375 13.83831596374512 C -13205.2880859375 13.29779624938965 -13205.521484375 12.76912689208984 -13205.79296875 12.26700687408447 L -13206.3701171875 11.20119667053223 L -13204.1162109375 7.859646320343018 C -13204.009765625 7.703954696655273 -13203.9599609375 7.585095882415771 -13203.9384765625 7.513887405395508 L -13205.9091796875 5.539969921112061 C -13206.00390625 5.56401252746582 -13206.162109375 5.62178897857666 -13206.3701171875 5.74560546875 L -13209.8955078125 7.937086582183838 L -13210.8740234375 7.484376430511475 C -13211.3056640625 7.285036563873291 -13211.7509765625 7.11280632019043 -13212.1962890625 6.972456455230713 L -13213.333984375 6.614906311035156 L -13214.1552734375 2.373246431350708 C -13214.1904296875 2.185755014419556 -13214.240234375 2.065361738204956 -13214.2763671875 1.999996423721313 L -13217.064453125 1.999996423721313 C -13217.115234375 2.084954738616943 -13217.1875 2.239277362823486 -13217.248046875 2.473608493804932 L -13218.25 6.76750659942627 L -13219.2646484375 7.138826370239258 C -13219.63671875 7.274856567382812 -13220.005859375 7.433386325836182 -13220.3623046875 7.610006332397461 L -13221.3603515625 8.105566024780273 L -13225.1552734375 5.745608329772949 C -13225.36328125 5.621734619140625 -13225.5224609375 5.563922882080078 -13225.6162109375 5.539906024932861 L -13227.5869140625 7.513984680175781 C -13227.5654296875 7.585033416748047 -13227.515625 7.703737735748291 -13227.4091796875 7.859256267547607 L -13227.404296875 7.866696357727051 L -13224.87109375 11.61450672149658 L -13225.37890625 12.65378665924072 C -13225.546875 12.99904632568359 -13225.693359375 13.34532642364502 -13225.826171875 13.71242618560791 L -13226.212890625 14.78084659576416 L -13230.6279296875 15.63097667694092 C -13230.8154296875 15.66654872894287 -13230.935546875 15.71606159210205 -13231.0009765625 15.75198936462402 L -13231.0009765625 18.53908157348633 C -13230.916015625 18.58928871154785 -13230.76171875 18.66080665588379 -13230.529296875 18.71998596191406 L -13226.3193359375 19.7072868347168 L -13225.9775390625 20.79473686218262 C -13225.84765625 21.20749664306641 -13225.68359375 21.63153648376465 -13225.48828125 22.05509567260742 L -13225.0166015625 23.07962608337402 L -13227.4072265625 26.61012649536133 C -13227.515625 26.76908874511719 -13227.5654296875 26.89005470275879 -13227.5869140625 26.96190452575684 L -13225.6162109375 28.93310546875 C -13225.5205078125 28.90842247009277 -13225.3623046875 28.84981918334961 -13225.1533203125 28.72546577453613 L -13221.732421875 26.60750579833984 L -13220.71484375 27.15503692626953 C -13220.2099609375 27.42625617980957 -13219.6982421875 27.65578651428223 -13219.19140625 27.83725547790527 L -13218.119140625 28.22163581848145 L -13217.369140625 32.10185623168945 C -13217.3310546875 32.3017578125 -13217.2763671875 32.41735458374023 -13217.2412109375 32.47577667236328 L -13214.458984375 32.47577667236328 M -13215.48828125 10.47384643554688 C -13211.6279296875 10.47384643554688 -13208.4873046875 13.61470603942871 -13208.4873046875 17.4753360748291 C -13208.4873046875 21.33414649963379 -13211.6279296875 24.4735164642334 -13215.48828125 24.4735164642334 C -13219.34765625 24.4735164642334 -13222.4873046875 21.33414649963379 -13222.4873046875 17.4753360748291 C -13222.4873046875 13.61470603942871 -13219.34765625 10.47384643554688 -13215.48828125 10.47384643554688 M -13214.3330078125 34.47577667236328 L -13217.3349609375 34.47577667236328 C -13218.3349609375 34.47577667236328 -13219.1005859375 33.70842742919922 -13219.333984375 32.47318649291992 L -13219.8662109375 29.72003555297852 C -13220.466796875 29.50483703613281 -13221.0712890625 29.23418617248535 -13221.662109375 28.91634559631348 L -13224.11328125 30.43405723571777 C -13224.673828125 30.77073669433594 -13225.22265625 30.94869613647461 -13225.703125 30.94870567321777 C -13226.1845703125 30.94871711730957 -13226.6025390625 30.77556610107422 -13226.943359375 30.43405723571777 L -13229.0615234375 28.31523704528809 C -13229.7783203125 27.59783554077148 -13229.7783203125 26.54006576538086 -13229.0615234375 25.48569679260254 L -13227.3046875 22.89196586608887 C -13227.5361328125 22.38958549499512 -13227.7314453125 21.88532638549805 -13227.8857421875 21.3941764831543 L -13231.0009765625 20.66354560852051 C -13231.748046875 20.47728729248047 -13233.0009765625 19.96987724304199 -13233.0009765625 18.66427612304688 L -13233.0009765625 15.66536617279053 C -13233.0009765625 14.65128612518311 -13232.2529296875 13.90389633178711 -13231.0009765625 13.66610622406006 L -13227.70703125 13.03178596496582 C -13227.5498046875 12.59735679626465 -13227.3759765625 12.18651676177979 -13227.17578125 11.77642631530762 L -13229.0615234375 8.986746788024902 C -13229.779296875 7.935136318206787 -13229.779296875 6.87860631942749 -13229.0615234375 6.160536289215088 L -13226.943359375 4.03839635848999 C -13226.6015625 3.697786331176758 -13226.18359375 3.525076389312744 -13225.7021484375 3.525076389312744 C -13225.220703125 3.525076389312744 -13224.671875 3.702576398849487 -13224.11328125 4.03839635848999 L -13221.2509765625 5.81847620010376 C -13220.828125 5.608636379241943 -13220.390625 5.420926570892334 -13219.9521484375 5.260536193847656 L -13219.19140625 1.999266386032104 C -13219.0029296875 1.252596378326416 -13218.4921875 -3.571167098925798e-06 -13217.189453125 -3.571167098925798e-06 L -13214.1904296875 -3.571167098925798e-06 C -13213.1767578125 -3.571167098925798e-06 -13212.4287109375 0.7473864555358887 -13212.1904296875 1.999266386032104 L -13211.5966796875 5.064596652984619 C -13211.0673828125 5.231066226959229 -13210.5419921875 5.434686660766602 -13210.03515625 5.669026374816895 L -13207.412109375 4.03839635848999 C -13206.853515625 3.702576398849487 -13206.3046875 3.525076389312744 -13205.822265625 3.525076389312744 C -13205.33984375 3.525076389312744 -13204.921875 3.697786331176758 -13204.58203125 4.03839635848999 L -13202.4638671875 6.160536289215088 C -13201.74609375 6.878066539764404 -13201.74609375 7.934596538543701 -13202.4638671875 8.986746788024902 L -13204.0341796875 11.31480598449707 C -13203.7119140625 11.91004657745361 -13203.4345703125 12.53834629058838 -13203.2109375 13.18122673034668 L -13200.5244140625 13.80890655517578 C -13199.77734375 13.99516677856445 -13198.5244140625 14.50257682800293 -13198.5244140625 15.80817604064941 L -13198.5244140625 18.81039619445801 C -13198.5244140625 19.82448577880859 -13199.2724609375 20.57187652587891 -13200.5244140625 20.80966567993164 L -13203.0576171875 21.29786682128906 C -13203.2734375 22.00481605529785 -13203.5556640625 22.7011661529541 -13203.89453125 23.36687660217285 L -13202.4638671875 25.48569679260254 C -13201.7451171875 26.54219627380371 -13201.7451171875 27.59996604919434 -13202.4638671875 28.31523704528809 L -13204.58203125 30.43405723571777 C -13204.921875 30.7757568359375 -13205.33984375 30.94902610778809 -13205.822265625 30.94903564453125 C -13206.302734375 30.94903564453125 -13206.8515625 30.7721061706543 -13207.412109375 30.43737602233887 L -13209.607421875 29.07242584228516 C -13210.2939453125 29.41983604431152 -13211.0107421875 29.70698738098145 -13211.736328125 29.92593574523926 L -13212.333984375 32.47318649291992 C -13212.51953125 33.22109603881836 -13213.0263671875 34.47577667236328 -13214.3330078125 34.47577667236328 Z M -13215.48828125 12.47384643554688 C -13218.2451171875 12.47384643554688 -13220.4873046875 14.71750640869141 -13220.4873046875 17.4753360748291 C -13220.4873046875 20.23134613037109 -13218.2451171875 22.4735164642334 -13215.48828125 22.4735164642334 C -13212.73046875 22.4735164642334 -13210.4873046875 20.23134613037109 -13210.4873046875 17.4753360748291 C -13210.4873046875 14.71750640869141 -13212.73046875 12.47384643554688 -13215.48828125 12.47384643554688 Z" stroke="none" fill="#000"/>
    </g>
    <g id="사각형_1179" data-name="사각형 1179" transform="translate(1533 867)" fill="none" stroke="#fff" stroke-width="1" opacity="0">
      <rect width="40" height="40" stroke="none"/>
      <rect x="0.5" y="0.5" width="39" height="39" fill="none"/>
    </g>
  </g>
</svg>
