<svg xmlns="http://www.w3.org/2000/svg" width="40" height="40" viewBox="0 0 40 40">
  <g id="그룹_1466" data-name="그룹 1466" transform="translate(-1192 -867)">
    <g id="그룹_542" data-name="그룹 542" transform="translate(413.25 -43.563)">
      <path id="패스_571" data-name="패스 571" d="M7220.55,906.961h-14.087a2.251,2.251,0,0,1-1.713-2.128c.029-1.7,0-26.241,0-26.241a2.04,2.04,0,0,1,2.353-1.772c2.229.06,22.024,0,22.024,0a2.574,2.574,0,0,1,2.02,2.488c-.038,2.036,0,18.732,0,18.732Z" transform="translate(-6419 38.744)" fill="none" stroke="#000" stroke-width="2"/>
      <path id="패스_570" data-name="패스 570" d="M1259.692,748.92h-11V758.8Z" transform="translate(-447.692 186.938)"/>
    </g>
    <g id="사각형_1177" data-name="사각형 1177" transform="translate(1192 867)" fill="none" stroke="#fff" stroke-width="1" opacity="0">
      <rect width="40" height="40" stroke="none"/>
      <rect x="0.5" y="0.5" width="39" height="39" fill="none"/>
    </g>
    <g id="사각형_1180" data-name="사각형 1180" transform="translate(1192 867)" fill="none" stroke="#fff" stroke-width="1" opacity="0">
      <rect width="40" height="40" stroke="none"/>
      <rect x="0.5" y="0.5" width="39" height="39" fill="none"/>
    </g>
  </g>
</svg>
