<svg xmlns="http://www.w3.org/2000/svg" width="36.436" height="25.488" viewBox="0 0 36.436 25.488">
  <g id="그룹_598" data-name="그룹 598" transform="translate(0.96)">
    <g id="그룹_596" data-name="그룹 596" transform="translate(0 0)">
      <g id="타원_59" data-name="타원 59" transform="translate(2.768)" fill="none" stroke="#fff" stroke-linecap="round" stroke-width="2">
        <ellipse cx="7.197" cy="7.197" rx="7.197" ry="7.197" stroke="none"/>
        <ellipse cx="7.197" cy="7.197" rx="6.197" ry="6.197" fill="none"/>
      </g>
      <path id="패스_551" data-name="패스 551" d="M7665.825,267.928a10.646,10.646,0,0,1,10.392-7.228,10.931,10.931,0,0,1,10.548,7.228" transform="translate(-7665.825 -242.738)" fill="none" stroke="#fff" stroke-width="2"/>
    </g>
    <g id="그룹_597" data-name="그룹 597" transform="translate(19.74 4.987)">
      <g id="타원_59-2" data-name="타원 59" transform="translate(1.954 0)" fill="none" stroke="#fff" stroke-linecap="round" stroke-width="2">
        <ellipse cx="5.08" cy="5.08" rx="5.08" ry="5.08" stroke="none"/>
        <ellipse cx="5.08" cy="5.08" rx="4.08" ry="4.08" fill="none"/>
      </g>
      <path id="패스_551-2" data-name="패스 551" d="M7665.824,265.8a7.517,7.517,0,0,1,7.336-5.1,7.714,7.714,0,0,1,7.445,5.1" transform="translate(-7665.824 -248.021)" fill="none" stroke="#fff" stroke-width="2"/>
    </g>
  </g>
</svg>
